# xmcd CD database file
#
# Track frame offsets:
#	150
#	17677
#	36272
#	54395
#	63495
#	76750
#	89737
#	109102
#	126907
#	140490
#	155612
#	167100
#	178022
#	195537
#	208655
#	225857
#	236680
#	247040
#	267435
#	284850
#
# Disc length: 4048 seconds
#
# Revision: 4
# Processed by: cddbd v1.5.2PL0 Copyright (c) Steve Scherf et al.
# Submitted via: CDex 1.51
#
DISCID=240fce14
DTITLE=Various Artist - 50 ans de grandes voix françaises  [CD 2-6]  Enregistrements d'origine 78 tours remasterisés
DYEAR=2001
DGENRE=Chants
TTITLE0=José Luccioni - La fleur que tu m'avais jetée  (G. Bizet)
TTITLE1=José Luccioni - O céleste Aïda  (G. Verdi)
TTITLE2=André Pernet - Air de la calomnie  (G. Rossini)
TTITLE3=André Pernet - Ronde du veau d'or  (Ch. Gounod)
TTITLE4=Georges Thill - Pauvre Paillasse  (R. Leoncavallo)
TTITLE5=Georges Thill - Le ciel luisait d'étoiles  (G. Puccini)
TTITLE6=Arthur Andreze - Air du toréador  (H. Meilhac - L.Halevy - G. Bizet)
TTITLE7=Arthur Andreze - Voilà donc la terrible cité  (J. Massenet)
TTITLE8=Miguel Villabella - Le rêve des grieux  (J. Massenet)
TTITLE9=Miguel Villabella - Aubade du roi d'Ys  (E. Lalo)
TTITLE10=Vanni Marcoux - Air de la puce  (H. Berlioz)
TTITLE11=Vanni Marcoux - Sérénade  (H. Berlioz)
TTITLE12=André baugé - Air de Figaro  (G. Rossini)
TTITLE13=André baugé - La rose rouge  (P. Veber - A. Rivoire - A. Messager)
TTITLE14=Gaston Micheletti - Ah lève-toi soleil  (Ch. Gounod)
TTITLE15=Gaston Micheletti - O douces mains  (G. Puccini)
TTITLE16=Paul-Henri Vergnes - Comme la plume au vent  (G. Verdi)
TTITLE17=Paul-Henri Vergnes - Salut demeure chaste et pure  (Ch. Gounod)
TTITLE18=Pierre Deldi - Vision fugitive  (J. Massenet)
TTITLE19=Pierre Deldi - Duo de Nadir et Zurga  (G. Bizet)
EXTD=YEAR: 2001
EXTT0=
EXTT1=
EXTT2=
EXTT3=
EXTT4=
EXTT5=
EXTT6=
EXTT7=
EXTT8=
EXTT9=
EXTT10=
EXTT11=
EXTT12=
EXTT13=
EXTT14=
EXTT15=
EXTT16=
EXTT17=
EXTT18=
EXTT19=
PLAYORDER=
